<svg xmlns="http://www.w3.org/2000/svg" version="1.1" xmlns:xlink="http://www.w3.org/1999/xlink" xmlns:svgjs="http://svgjs.com/svgjs" width="802px" height="802px"><svg xmlns="http://www.w3.org/2000/svg" version="1.1" width="802px" height="802px" style="shape-rendering:geometricPrecision; text-rendering:geometricPrecision; image-rendering:optimizeQuality; fill-rule:evenodd; clip-rule:evenodd" xmlns:xlink="http://www.w3.org/1999/xlink">
<g><path style="opacity:0.147" fill="#4b4b4b" d="M 477.5,60.5 C 460.008,61.4967 442.341,61.8301 424.5,61.5C 432.974,60.1685 441.807,59.5018 451,59.5C 460.006,59.5002 468.84,59.8335 477.5,60.5 Z"></path></g>
<g><path style="opacity:0.464" fill="#1a1a1a" d="M 477.5,60.5 C 479.042,61.3007 480.708,61.634 482.5,61.5C 487.372,64.1685 492.705,65.1685 498.5,64.5C 499.167,64.5 499.833,64.5 500.5,64.5C 500.167,65.1667 499.833,65.8333 499.5,66.5C 490.715,65.9855 482.048,64.8188 473.5,63C 457.5,62.3333 441.5,62.3333 425.5,63C 418.897,64.2736 412.23,64.7736 405.5,64.5C 405.611,63.8826 405.944,63.3826 406.5,63C 412.455,61.9283 418.455,61.4283 424.5,61.5C 442.341,61.8301 460.008,61.4967 477.5,60.5 Z"></path></g>
<g><path style="opacity:0.997" fill="#010101" d="M 499.5,66.5 C 506.3,68.711 513.3,69.8777 520.5,70C 526.407,72.439 532.407,74.6057 538.5,76.5C 540.73,77.9613 543.063,79.4613 545.5,81C 552.203,81.0181 557.536,83.6848 561.5,89C 565.436,89.972 569.103,91.472 572.5,93.5C 576.885,96.7984 581.052,100.465 585,104.5C 587.121,107.747 588.954,111.081 590.5,114.5C 590.933,117.166 591.433,119.832 592,122.5C 595.932,128.197 599.765,133.864 603.5,139.5C 604.918,143.128 606.418,146.794 608,150.5C 614.233,178.078 616.233,206.078 614,234.5C 611.842,244.459 610.009,254.459 608.5,264.5C 607.603,263.402 606.77,263.402 606,264.5C 601.583,275.583 598.083,286.916 595.5,298.5C 591.997,301.181 590.33,304.848 590.5,309.5C 590.771,311.38 590.104,312.713 588.5,313.5C 584.382,317.165 582.382,321.832 582.5,327.5C 582.5,327.833 582.5,328.167 582.5,328.5C 581.178,328.33 580.011,328.663 579,329.5C 577.441,332.253 575.607,334.92 573.5,337.5C 572.478,340.202 571.478,342.869 570.5,345.5C 566.592,351.582 562.092,357.249 557,362.5C 556.517,363.448 556.351,364.448 556.5,365.5C 552.962,368.651 549.295,371.817 545.5,375C 544.552,375.483 543.552,375.649 542.5,375.5C 542.617,377.484 541.95,379.15 540.5,380.5C 536.283,384.749 531.95,388.749 527.5,392.5C 524.267,392.783 521.601,394.116 519.5,396.5C 517.008,393.837 514.674,391.004 512.5,388C 510.372,387.345 508.372,386.511 506.5,385.5C 505.833,385.5 505.167,385.5 504.5,385.5C 502.949,382.598 500.615,380.931 497.5,380.5C 491.692,375.188 486.359,369.355 481.5,363C 480.552,362.517 479.552,362.351 478.5,362.5C 476.567,362.271 474.9,361.438 473.5,360C 472.748,359.329 472.414,358.496 472.5,357.5C 471.506,352.336 468.506,348.836 463.5,347C 461.527,346.505 459.527,346.338 457.5,346.5C 456.29,349.552 454.456,352.219 452,354.5C 444.959,359.874 438.959,366.207 434,373.5C 428.835,376.513 425.335,380.846 423.5,386.5C 421.787,389.86 420.12,393.193 418.5,396.5C 418.5,396.833 418.5,397.167 418.5,397.5C 413.706,399.985 410.706,403.985 409.5,409.5C 402.557,418.411 396.057,427.745 390,437.5C 388,440.571 386.834,443.904 386.5,447.5C 384.267,451.078 381.601,454.412 378.5,457.5C 376.48,462.769 374.646,468.102 373,473.5C 370.835,475.653 370.002,478.319 370.5,481.5C 369.504,481.414 368.671,481.748 368,482.5C 367.463,485.093 366.63,487.593 365.5,490C 365.528,491.07 365.861,491.903 366.5,492.5C 366.5,493.167 366.167,493.5 365.5,493.5C 362.908,495.036 361.908,497.369 362.5,500.5C 356.693,507.452 353.026,515.452 351.5,524.5C 351.585,526.333 352.252,527.666 353.5,528.5C 352.833,529.5 352.167,530.5 351.5,531.5C 350.504,531.414 349.671,531.748 349,532.5C 347.368,537.03 346.368,541.696 346,546.5C 343.688,551.154 342.854,556.154 343.5,561.5C 343.5,562.167 343.5,562.833 343.5,563.5C 342.141,564.007 341.141,565.007 340.5,566.5C 339.808,571.156 338.308,575.489 336,579.5C 335.667,582.5 335.333,585.5 335,588.5C 330.259,607.017 324.926,625.35 319,643.5C 316.553,665.05 315.886,686.716 317,708.5C 317.72,710.056 318.887,711.056 320.5,711.5C 323.982,713.748 327.316,716.248 330.5,719C 332,719.5 333.5,720 335,720.5C 335.765,720.43 336.265,720.097 336.5,719.5C 337.167,719.5 337.5,719.833 337.5,720.5C 341.968,727.236 348.302,730.569 356.5,730.5C 357.167,730.5 357.833,730.5 358.5,730.5C 362.107,731.824 366.107,732.491 370.5,732.5C 374.5,732.333 378.5,732.167 382.5,732C 383.416,731.722 384.082,731.222 384.5,730.5C 384.833,730.5 385.167,730.5 385.5,730.5C 389.962,729.847 394.295,728.68 398.5,727C 400.026,725.113 402.026,724.113 404.5,724C 405.823,723.184 406.489,722.017 406.5,720.5C 412.333,719.515 416.666,716.349 419.5,711C 418.906,710.536 418.239,710.369 417.5,710.5C 417.833,709.5 418.5,708.833 419.5,708.5C 419.435,708.938 419.601,709.272 420,709.5C 423.457,705.816 425.79,701.483 427,696.5C 426.779,685.957 427.945,675.623 430.5,665.5C 432.782,657.937 434.782,650.103 436.5,642C 438.399,623.096 440.733,604.263 443.5,585.5C 443.5,584.833 443.5,584.167 443.5,583.5C 444.892,581.727 446.059,579.727 447,577.5C 450.478,562.983 453.478,548.316 456,533.5C 457.882,528.849 459.549,524.182 461,519.5C 465.349,512.801 468.349,505.468 470,497.5C 471.073,495.639 472.24,493.806 473.5,492C 473.251,483.766 476.084,476.933 482,471.5C 484.34,463.136 487.673,455.136 492,447.5C 492.32,443.786 492.82,440.119 493.5,436.5C 493.5,436.167 493.5,435.833 493.5,435.5C 498.588,431.653 501.922,426.653 503.5,420.5C 504.675,420.719 505.675,420.386 506.5,419.5C 507.961,416.618 509.127,413.618 510,410.5C 513.038,407.797 515.705,404.797 518,401.5C 519.508,404.059 521.675,405.726 524.5,406.5C 531.356,413.505 537.19,421.172 542,429.5C 542.816,430.823 543.983,431.489 545.5,431.5C 548.871,434.736 551.204,438.736 552.5,443.5C 551.402,444.601 551.235,445.934 552,447.5C 556.076,455.689 560.243,463.689 564.5,471.5C 565.167,471.5 565.5,471.833 565.5,472.5C 564.876,472.917 564.543,473.584 564.5,474.5C 567.276,482.705 569.443,491.039 571,499.5C 571.533,501.939 572.7,502.605 574.5,501.5C 574.5,501.833 574.5,502.167 574.5,502.5C 574.335,505.518 574.502,508.518 575,511.5C 577.092,518.713 578.759,526.047 580,533.5C 580.671,534.252 581.504,534.586 582.5,534.5C 582.244,538.269 582.577,541.936 583.5,545.5C 581.652,570.649 580.818,595.983 581,621.5C 581.383,620.944 581.883,620.611 582.5,620.5C 582.218,621.778 581.551,622.778 580.5,623.5C 579.778,623.918 579.278,624.584 579,625.5C 578.443,632.469 577.276,639.302 575.5,646C 575.387,647.699 576.053,648.866 577.5,649.5C 577.443,650.609 577.11,651.609 576.5,652.5C 575.5,652.5 574.5,652.5 573.5,652.5C 572.136,663.314 568.636,673.314 563,682.5C 561.242,691.123 557.575,698.79 552,705.5C 551.598,706.872 551.098,708.205 550.5,709.5C 550.624,710.107 550.957,710.44 551.5,710.5C 545.5,719.167 538.167,726.5 529.5,732.5C 523.956,731.367 519.623,733.367 516.5,738.5C 510.349,740.405 505.015,743.405 500.5,747.5C 499.833,747.833 499.167,748.167 498.5,748.5C 498.083,747.876 497.416,747.543 496.5,747.5C 490.38,749.195 484.38,751.195 478.5,753.5C 477.702,753.957 477.369,754.624 477.5,755.5C 476.5,755.5 475.5,755.5 474.5,755.5C 461.667,755.548 449,756.881 436.5,759.5C 424.009,759.617 411.342,759.451 398.5,759C 377.863,757.254 357.196,756.088 336.5,755.5C 330.414,756.034 324.748,754.867 319.5,752C 314.826,751.566 310.159,751.066 305.5,750.5C 303.955,750.511 302.622,750.844 301.5,751.5C 300.833,751.5 300.5,751.167 300.5,750.5C 299.571,749.685 298.571,748.852 297.5,748C 294.5,747.667 291.5,747.333 288.5,747C 280.447,743.614 272.114,741.114 263.5,739.5C 257.652,734.029 250.652,730.529 242.5,729C 238.928,725.896 235.261,723.063 231.5,720.5C 228.633,719.226 225.633,718.393 222.5,718C 217.469,713.484 211.803,709.984 205.5,707.5C 204.826,705.976 203.826,704.642 202.5,703.5C 201.675,702.614 200.675,702.281 199.5,702.5C 197.5,702.5 196.5,701.5 196.5,699.5C 190.951,691.773 184.784,684.439 178,677.5C 177.617,678.056 177.117,678.389 176.5,678.5C 176.167,677.833 175.833,677.167 175.5,676.5C 176.097,676.265 176.43,675.765 176.5,675C 173.197,668.419 170.697,661.586 169,654.5C 167.622,651.293 165.455,648.96 162.5,647.5C 162.5,647.167 162.5,646.833 162.5,646.5C 162.154,641.784 161.487,637.117 160.5,632.5C 159.5,632.5 158.5,632.5 157.5,632.5C 156.833,632.5 156.5,632.167 156.5,631.5C 157.727,625.133 157.06,618.8 154.5,612.5C 153.817,612.863 153.15,613.196 152.5,613.5C 152.011,608.103 151.344,602.769 150.5,597.5C 151.833,587.5 151.833,577.5 150.5,567.5C 150.833,566.833 151.167,566.167 151.5,565.5C 154.54,557.571 156.207,549.238 156.5,540.5C 158.211,536.119 158.877,531.453 158.5,526.5C 159.5,526.5 160.5,526.5 161.5,526.5C 161.817,515.551 164.317,505.217 169,495.5C 169.333,492.167 169.667,488.833 170,485.5C 173.326,475.843 177.493,466.51 182.5,457.5C 183.156,455.547 183.489,453.547 183.5,451.5C 190.203,443.143 196.703,434.477 203,425.5C 204.052,421.595 205.552,417.929 207.5,414.5C 208.496,414.586 209.329,414.252 210,413.5C 213.079,409.676 215.912,405.676 218.5,401.5C 219.628,400.738 220.795,400.071 222,399.5C 223.537,396.427 225.037,393.427 226.5,390.5C 230.981,390.358 233.648,388.025 234.5,383.5C 239.677,378.343 244.01,372.677 247.5,366.5C 249.017,366.489 250.184,365.823 251,364.5C 256.934,358.55 261.267,351.55 264,343.5C 266,340.833 268,338.167 270,335.5C 270.65,332.216 271.816,329.216 273.5,326.5C 274.962,325.199 276.296,323.699 277.5,322C 278.617,317.975 280.117,314.142 282,310.5C 283.666,304.062 284.166,297.729 283.5,291.5C 283.5,290.833 283.833,290.5 284.5,290.5C 289.146,280.71 290.813,270.377 289.5,259.5C 290.341,257.621 290.675,255.621 290.5,253.5C 291.268,254.263 291.768,255.263 292,256.5C 292.667,239.167 292.667,221.833 292,204.5C 291.802,202.618 291.302,200.952 290.5,199.5C 291.808,189.904 292.808,180.238 293.5,170.5C 295.113,170.056 296.28,169.056 297,167.5C 297.258,162.794 298.591,158.461 301,154.5C 301.554,151.342 302.054,148.175 302.5,145C 302.392,143.319 301.725,142.152 300.5,141.5C 304.844,128.333 311.01,116 319,104.5C 319.671,103.748 320.504,103.414 321.5,103.5C 326.5,100.833 331.5,98.1667 336.5,95.5C 336.452,92.7081 337.785,90.8747 340.5,90C 342.5,89.6667 344.5,89.3333 346.5,89C 350.138,86.8452 353.805,84.6785 357.5,82.5C 369.407,79.0405 381.073,74.5405 392.5,69C 395.576,68.6543 398.576,67.9876 401.5,67C 402.756,66.5831 403.423,65.7498 403.5,64.5C 404.167,64.5 404.833,64.5 405.5,64.5C 412.23,64.7736 418.897,64.2736 425.5,63C 441.5,62.3333 457.5,62.3333 473.5,63C 482.048,64.8188 490.715,65.9855 499.5,66.5 Z M 455.5,165.5 C 461.5,165.5 467.5,165.5 473.5,165.5C 482.617,167.443 489.617,172.443 494.5,180.5C 497.391,184.984 499.724,189.65 501.5,194.5C 501.5,195.167 501.833,195.5 502.5,195.5C 503.185,200.239 504.185,204.906 505.5,209.5C 505.335,212.518 505.502,215.518 506,218.5C 506.383,219.056 506.883,219.389 507.5,219.5C 507.791,225.923 507.458,232.256 506.5,238.5C 505.527,240.948 505.194,243.615 505.5,246.5C 504.887,252.896 503.887,259.23 502.5,265.5C 501.883,265.611 501.383,265.944 501,266.5C 500.545,269.854 500.045,273.187 499.5,276.5C 493.776,295.136 485.776,312.803 475.5,329.5C 474.761,329.369 474.094,329.536 473.5,330C 470.474,333.551 467.474,337.051 464.5,340.5C 454.696,330.484 444.696,320.817 434.5,311.5C 433.63,307.966 431.63,305.299 428.5,303.5C 425.382,297.581 422.049,291.914 418.5,286.5C 418.634,284.708 418.301,283.042 417.5,281.5C 415.826,275.295 414.66,268.962 414,262.5C 413.015,260.825 412.181,259.158 411.5,257.5C 410.505,249.912 409.838,242.246 409.5,234.5C 409.224,223.793 409.724,213.127 411,202.5C 412.595,198.215 414.095,193.882 415.5,189.5C 418.927,184.992 422.593,180.658 426.5,176.5C 435.592,171.431 445.259,167.764 455.5,165.5 Z"></path></g>
<g><path style="opacity:0.096" fill="#424242" d="M 482.5,61.5 C 487.519,61.7522 492.519,62.2522 497.5,63C 498.056,63.3826 498.389,63.8826 498.5,64.5C 492.705,65.1685 487.372,64.1685 482.5,61.5 Z"></path></g>
<g><path style="opacity:0.155" fill="#444444" d="M 500.5,64.5 C 510.92,66.1565 521.253,68.3232 531.5,71C 536.672,73.0321 541.672,75.1988 546.5,77.5C 543.763,77.5987 541.096,77.2653 538.5,76.5C 532.407,74.6057 526.407,72.439 520.5,70C 513.3,69.8777 506.3,68.711 499.5,66.5C 499.833,65.8333 500.167,65.1667 500.5,64.5 Z"></path></g>
<g><path style="opacity:0.208" fill="#4c4c4c" d="M 385.5,69.5 C 385.53,70.4972 385.03,71.1639 384,71.5C 380.762,72.2614 377.596,73.2614 374.5,74.5C 373.274,74.4805 372.274,74.1471 371.5,73.5C 375.783,71.1879 380.45,69.8545 385.5,69.5 Z"></path></g>
<g><path style="opacity:0.838" fill="#1a1a1a" d="M 403.5,64.5 C 403.423,65.7498 402.756,66.5831 401.5,67C 398.576,67.9876 395.576,68.6543 392.5,69C 381.073,74.5405 369.407,79.0405 357.5,82.5C 353.805,84.6785 350.138,86.8452 346.5,89C 344.5,89.3333 342.5,89.6667 340.5,90C 337.785,90.8747 336.452,92.7081 336.5,95.5C 331.5,98.1667 326.5,100.833 321.5,103.5C 322.634,100.401 324.634,97.9006 327.5,96C 331.176,93.3209 334.843,90.6542 338.5,88C 340.65,86.5886 342.984,85.7553 345.5,85.5C 351.369,84.1543 357.036,82.321 362.5,80C 364.226,78.4702 366.226,77.4702 368.5,77C 369.252,76.3292 369.586,75.4959 369.5,74.5C 370.167,74.1667 370.833,73.8333 371.5,73.5C 372.274,74.1471 373.274,74.4805 374.5,74.5C 377.596,73.2614 380.762,72.2614 384,71.5C 385.03,71.1639 385.53,70.4972 385.5,69.5C 385.611,68.8826 385.944,68.3826 386.5,68C 392.262,67.1369 397.929,65.9702 403.5,64.5 Z"></path></g>
<g><path style="opacity:0.479" fill="#1f1f1f" d="M 538.5,76.5 C 541.096,77.2653 543.763,77.5987 546.5,77.5C 547.873,77.3433 549.207,77.51 550.5,78C 557.765,81.9371 564.765,86.2704 571.5,91C 572.252,91.6708 572.586,92.5041 572.5,93.5C 569.103,91.472 565.436,89.972 561.5,89C 557.536,83.6848 552.203,81.0181 545.5,81C 543.063,79.4613 540.73,77.9613 538.5,76.5 Z"></path></g>
<g><path style="opacity:0.416" fill="#3d3d3d" d="M 369.5,74.5 C 369.586,75.4959 369.252,76.3292 368.5,77C 366.226,77.4702 364.226,78.4702 362.5,80C 357.036,82.321 351.369,84.1543 345.5,85.5C 352.648,80.2638 360.648,76.5971 369.5,74.5 Z"></path></g>
<g><path style="opacity:0.141" fill="#282828" d="M 590.5,114.5 C 591.376,114.369 592.043,114.702 592.5,115.5C 596.952,123.212 600.619,131.212 603.5,139.5C 599.765,133.864 595.932,128.197 592,122.5C 591.433,119.832 590.933,117.166 590.5,114.5 Z"></path></g>
<g><path style="opacity:0.055" fill="#6f6f6f" d="M 455.5,163.5 C 456.167,163.5 456.833,163.5 457.5,163.5C 463.271,162.887 468.604,163.554 473.5,165.5C 467.5,165.5 461.5,165.5 455.5,165.5C 455.5,164.833 455.5,164.167 455.5,163.5 Z"></path></g>
<g><path style="opacity:0.216" fill="#2a2a2a" d="M 300.5,141.5 C 301.725,142.152 302.392,143.319 302.5,145C 302.054,148.175 301.554,151.342 301,154.5C 298.591,158.461 297.258,162.794 297,167.5C 296.28,169.056 295.113,170.056 293.5,170.5C 295.812,160.884 298.145,151.217 300.5,141.5 Z"></path></g>
<g><path style="opacity:0.243" fill="#323232" d="M 455.5,163.5 C 455.5,164.167 455.5,164.833 455.5,165.5C 445.259,167.764 435.592,171.431 426.5,176.5C 427.252,174.9 428.252,173.4 429.5,172C 437.625,167.374 446.292,164.541 455.5,163.5 Z"></path></g>
<g><path style="opacity:0.498" fill="#242424" d="M 501.5,194.5 C 499.724,189.65 497.391,184.984 494.5,180.5C 489.617,172.443 482.617,167.443 473.5,165.5C 468.604,163.554 463.271,162.887 457.5,163.5C 460.258,162.182 463.424,161.515 467,161.5C 474.759,162.662 482.259,165.162 489.5,169C 491.98,174.494 495.647,179.16 500.5,183C 502.009,186.934 502.343,190.767 501.5,194.5 Z"></path></g>
<g><path style="opacity:0.086" fill="#3d3d3d" d="M 502.5,195.5 C 503.75,195.577 504.583,196.244 505,197.5C 505.853,201.857 506.687,206.191 507.5,210.5C 506.833,210.167 506.167,209.833 505.5,209.5C 504.185,204.906 503.185,200.239 502.5,195.5 Z"></path></g>
<g><path style="opacity:0.016" fill="#767676" d="M 505.5,209.5 C 506.167,209.833 506.833,210.167 507.5,210.5C 507.5,210.833 507.5,211.167 507.5,211.5C 507.5,214.167 507.5,216.833 507.5,219.5C 506.883,219.389 506.383,219.056 506,218.5C 505.502,215.518 505.335,212.518 505.5,209.5 Z"></path></g>
<g><path style="opacity:0.047" fill="#3c3c3c" d="M 415.5,189.5 C 414.095,193.882 412.595,198.215 411,202.5C 409.724,213.127 409.224,223.793 409.5,234.5C 408.173,230.049 407.506,225.216 407.5,220C 407.667,215.167 407.833,210.333 408,205.5C 409.844,202.467 410.844,199.134 411,195.5C 411.886,192.907 413.386,190.907 415.5,189.5 Z"></path></g>
<g><path style="opacity:0.047" fill="#3b3b3b" d="M 290.5,199.5 C 291.302,200.952 291.802,202.618 292,204.5C 292.667,221.833 292.667,239.167 292,256.5C 291.768,255.263 291.268,254.263 290.5,253.5C 290.5,235.5 290.5,217.5 290.5,199.5 Z"></path></g>
<g><path style="opacity:0.035" fill="#6b6b6b" d="M 506.5,238.5 C 507.641,241.64 507.808,244.973 507,248.5C 506.722,247.584 506.222,246.918 505.5,246.5C 505.194,243.615 505.527,240.948 506.5,238.5 Z"></path></g>
<g><path style="opacity:0.729" fill="#1b1b1b" d="M 507.5,211.5 C 508.302,212.952 508.802,214.618 509,216.5C 509.667,228.167 509.667,239.833 509,251.5C 507.565,259.106 505.399,266.44 502.5,273.5C 502.5,270.833 502.5,268.167 502.5,265.5C 503.887,259.23 504.887,252.896 505.5,246.5C 506.222,246.918 506.722,247.584 507,248.5C 507.808,244.973 507.641,241.64 506.5,238.5C 507.458,232.256 507.791,225.923 507.5,219.5C 507.5,216.833 507.5,214.167 507.5,211.5 Z"></path></g>
<g><path style="opacity:0.19" fill="#363636" d="M 411.5,257.5 C 412.181,259.158 413.015,260.825 414,262.5C 414.66,268.962 415.826,275.295 417.5,281.5C 415.903,280.263 414.737,278.596 414,276.5C 413.483,273.08 412.65,269.747 411.5,266.5C 410.197,263.355 410.197,260.355 411.5,257.5 Z"></path></g>
<g><path style="opacity:0.153" fill="#636363" d="M 502.5,265.5 C 502.5,268.167 502.5,270.833 502.5,273.5C 501.728,274.694 500.728,275.694 499.5,276.5C 500.045,273.187 500.545,269.854 501,266.5C 501.383,265.944 501.883,265.611 502.5,265.5 Z"></path></g>
<g><path style="opacity:0.204" fill="#393939" d="M 289.5,259.5 C 290.813,270.377 289.146,280.71 284.5,290.5C 286.385,280.197 288.052,269.864 289.5,259.5 Z"></path></g>
<g><path style="opacity:0.157" fill="#4e4e4e" d="M 608.5,264.5 C 604.229,276.005 599.896,287.338 595.5,298.5C 598.083,286.916 601.583,275.583 606,264.5C 606.77,263.402 607.603,263.402 608.5,264.5 Z"></path></g>
<g><path style="opacity:0.137" fill="#4a4a4a" d="M 502.5,273.5 C 501.908,277.885 500.408,281.885 498,285.5C 494.653,295.634 491.153,305.634 487.5,315.5C 484.48,318.839 481.813,322.506 479.5,326.5C 478.358,327.826 477.024,328.826 475.5,329.5C 485.776,312.803 493.776,295.136 499.5,276.5C 500.728,275.694 501.728,274.694 502.5,273.5 Z"></path></g>
<g><path style="opacity:0.106" fill="#4b4b4b" d="M 418.5,286.5 C 422.049,291.914 425.382,297.581 428.5,303.5C 422.836,299.168 419.503,293.502 418.5,286.5 Z"></path></g>
<g><path style="opacity:0.133" fill="#595959" d="M 595.5,298.5 C 594.828,301.71 593.828,304.876 592.5,308C 592.164,309.03 591.497,309.53 590.5,309.5C 590.33,304.848 591.997,301.181 595.5,298.5 Z"></path></g>
<g><path style="opacity:0.075" fill="#606060" d="M 428.5,303.5 C 431.63,305.299 433.63,307.966 434.5,311.5C 431.019,310.01 429.019,307.343 428.5,303.5 Z"></path></g>
<g><path style="opacity:0.531" fill="#242424" d="M 283.5,291.5 C 284.166,297.729 283.666,304.062 282,310.5C 280.117,314.142 278.617,317.975 277.5,322C 276.296,323.699 274.962,325.199 273.5,326.5C 274.508,323.156 275.508,319.823 276.5,316.5C 278.574,308.041 280.907,299.707 283.5,291.5 Z"></path></g>
<g><path style="opacity:0.041" fill="#595959" d="M 588.5,313.5 C 587.819,318.811 585.819,323.478 582.5,327.5C 582.382,321.832 584.382,317.165 588.5,313.5 Z"></path></g>
<g><path style="opacity:0.082" fill="#4f4f4f" d="M 276.5,316.5 C 275.508,319.823 274.508,323.156 273.5,326.5C 271.816,329.216 270.65,332.216 270,335.5C 268,338.167 266,340.833 264,343.5C 261.267,351.55 256.934,358.55 251,364.5C 250.184,365.823 249.017,366.489 247.5,366.5C 247.351,365.448 247.517,364.448 248,363.5C 258.996,349.686 267.829,334.519 274.5,318C 274.836,316.97 275.503,316.47 276.5,316.5 Z"></path></g>
<g><path style="opacity:0.02" fill="#2c2c2c" d="M 582.5,328.5 C 580.329,334.648 576.996,339.981 572.5,344.5C 571.833,344.833 571.167,345.167 570.5,345.5C 571.478,342.869 572.478,340.202 573.5,337.5C 575.607,334.92 577.441,332.253 579,329.5C 580.011,328.663 581.178,328.33 582.5,328.5 Z"></path></g>
<g><path style="opacity:0.071" fill="#4e4e4e" d="M 434.5,311.5 C 444.696,320.817 454.696,330.484 464.5,340.5C 467.474,337.051 470.474,333.551 473.5,330C 474.094,329.536 474.761,329.369 475.5,329.5C 472.974,333.481 470.307,337.481 467.5,341.5C 466.5,341.833 465.5,342.167 464.5,342.5C 454.51,336.677 446.51,328.844 440.5,319C 439.552,318.517 438.552,318.351 437.5,318.5C 437.5,317.5 437.5,316.5 437.5,315.5C 436.5,315.5 435.5,315.5 434.5,315.5C 434.5,314.167 434.5,312.833 434.5,311.5 Z"></path></g>
<g><path style="opacity:0.043" fill="#474747" d="M 572.5,344.5 C 570.087,350.332 566.921,355.666 563,360.5C 561.223,362.79 559.056,364.457 556.5,365.5C 556.351,364.448 556.517,363.448 557,362.5C 562.092,357.249 566.592,351.582 570.5,345.5C 571.167,345.167 571.833,344.833 572.5,344.5 Z"></path></g>
<g><path style="opacity:0.318" fill="#454545" d="M 472.5,357.5 C 469.873,355.212 467.206,352.878 464.5,350.5C 462.5,349.167 460.5,349.167 458.5,350.5C 451.396,358.852 444.062,366.852 436.5,374.5C 432.23,376.018 429.564,379.018 428.5,383.5C 427.021,384.759 425.354,385.759 423.5,386.5C 425.335,380.846 428.835,376.513 434,373.5C 438.959,366.207 444.959,359.874 452,354.5C 454.456,352.219 456.29,349.552 457.5,346.5C 459.527,346.338 461.527,346.505 463.5,347C 468.506,348.836 471.506,352.336 472.5,357.5 Z"></path></g>
<g><path style="opacity:0.314" fill="#505050" d="M 247.5,366.5 C 244.01,372.677 239.677,378.343 234.5,383.5C 233.648,388.025 230.981,390.358 226.5,390.5C 232.43,382.727 238.597,375.06 245,367.5C 245.671,366.748 246.504,366.414 247.5,366.5 Z"></path></g>
<g><path style="opacity:0.031" fill="#484848" d="M 478.5,362.5 C 479.552,362.351 480.552,362.517 481.5,363C 486.359,369.355 491.692,375.188 497.5,380.5C 496.5,380.5 495.5,380.5 494.5,380.5C 492.851,379.286 491.185,377.953 489.5,376.5C 485.805,371.734 482.138,367.067 478.5,362.5 Z"></path></g>
<g><path style="opacity:0.698" fill="#464646" d="M 556.5,365.5 C 556.579,366.93 556.246,368.264 555.5,369.5C 550.321,375.179 544.988,380.679 539.5,386C 534.61,389.734 529.61,393.234 524.5,396.5C 525.211,394.97 526.211,393.637 527.5,392.5C 531.95,388.749 536.283,384.749 540.5,380.5C 541.95,379.15 542.617,377.484 542.5,375.5C 543.552,375.649 544.552,375.483 545.5,375C 549.295,371.817 552.962,368.651 556.5,365.5 Z"></path></g>
<g><path style="opacity:0.027" fill="#6f6f6f" d="M 436.5,374.5 C 434.86,378.47 432.193,381.47 428.5,383.5C 429.564,379.018 432.23,376.018 436.5,374.5 Z"></path></g>
<g><path style="opacity:0.114" fill="#a1a1a1" d="M 494.5,380.5 C 495.5,380.5 496.5,380.5 497.5,380.5C 500.615,380.931 502.949,382.598 504.5,385.5C 507.326,388.496 509.993,391.663 512.5,395C 513.409,396.789 513.576,398.623 513,400.5C 512.722,399.584 512.222,398.918 511.5,398.5C 511.029,397.099 510.362,395.766 509.5,394.5C 504.506,389.84 499.506,385.173 494.5,380.5 Z"></path></g>
<g><path style="opacity:0.067" fill="#6a6a6a" d="M 428.5,383.5 C 426.973,387.048 424.973,390.381 422.5,393.5C 421.412,394.934 420.078,395.934 418.5,396.5C 420.12,393.193 421.787,389.86 423.5,386.5C 425.354,385.759 427.021,384.759 428.5,383.5 Z"></path></g>
<g><path style="opacity:0.911" fill="#1f1f1f" d="M 506.5,385.5 C 508.372,386.511 510.372,387.345 512.5,388C 514.674,391.004 517.008,393.837 519.5,396.5C 521.601,394.116 524.267,392.783 527.5,392.5C 526.211,393.637 525.211,394.97 524.5,396.5C 521.979,398.03 520.979,400.364 521.5,403.5C 522.5,403.5 523.5,403.5 524.5,403.5C 524.5,404.5 524.5,405.5 524.5,406.5C 521.675,405.726 519.508,404.059 518,401.5C 515.705,404.797 513.038,407.797 510,410.5C 509.127,413.618 507.961,416.618 506.5,419.5C 505.675,420.386 504.675,420.719 503.5,420.5C 501.922,426.653 498.588,431.653 493.5,435.5C 494.633,431.519 496.467,427.853 499,424.5C 499.49,423.207 499.657,421.873 499.5,420.5C 499.5,420.167 499.5,419.833 499.5,419.5C 503.511,417.654 506.345,414.654 508,410.5C 510,407.833 512.333,405.5 515,403.5C 515.667,401.167 515.667,398.833 515,396.5C 512.716,392.386 509.883,388.72 506.5,385.5 Z"></path></g>
<g><path style="opacity:0.084" fill="#444444" d="M 226.5,390.5 C 225.037,393.427 223.537,396.427 222,399.5C 220.795,400.071 219.628,400.738 218.5,401.5C 215.912,405.676 213.079,409.676 210,413.5C 209.329,414.252 208.496,414.586 207.5,414.5C 210.233,407.723 214.566,402.056 220.5,397.5C 221.837,394.422 223.837,392.089 226.5,390.5 Z"></path></g>
<g><path style="opacity:0.031" fill="#595959" d="M 524.5,396.5 C 523.782,398.137 523.616,399.803 524,401.5C 532.978,410.294 540.144,420.294 545.5,431.5C 543.983,431.489 542.816,430.823 542,429.5C 537.19,421.172 531.356,413.505 524.5,406.5C 524.5,405.5 524.5,404.5 524.5,403.5C 523.5,403.5 522.5,403.5 521.5,403.5C 520.979,400.364 521.979,398.03 524.5,396.5 Z"></path></g>
<g><path style="opacity:0.084" fill="#616161" d="M 504.5,385.5 C 505.167,385.5 505.833,385.5 506.5,385.5C 509.883,388.72 512.716,392.386 515,396.5C 515.667,398.833 515.667,401.167 515,403.5C 512.333,405.5 510,407.833 508,410.5C 506.345,414.654 503.511,417.654 499.5,419.5C 503.281,414.112 506.948,408.612 510.5,403C 511.148,401.56 511.481,400.06 511.5,398.5C 512.222,398.918 512.722,399.584 513,400.5C 513.576,398.623 513.409,396.789 512.5,395C 509.993,391.663 507.326,388.496 504.5,385.5 Z"></path></g>
<g><path style="opacity:0.745" fill="#2b2b2b" d="M 207.5,414.5 C 205.552,417.929 204.052,421.595 203,425.5C 196.703,434.477 190.203,443.143 183.5,451.5C 183.433,449.599 183.767,447.766 184.5,446C 190.792,435.431 197.625,425.265 205,415.5C 205.671,414.748 206.504,414.414 207.5,414.5 Z"></path></g>
<g><path style="opacity:0.062" fill="#5a5a5a" d="M 418.5,397.5 C 407.793,414.273 397.127,430.939 386.5,447.5C 386.834,443.904 388,440.571 390,437.5C 396.057,427.745 402.557,418.411 409.5,409.5C 410.706,403.985 413.706,399.985 418.5,397.5 Z"></path></g>
<g><path style="opacity:0.027" fill="#858585" d="M 499.5,420.5 C 499.657,421.873 499.49,423.207 499,424.5C 496.467,427.853 494.633,431.519 493.5,435.5C 493.5,435.833 493.5,436.167 493.5,436.5C 492.115,437.574 490.949,438.907 490,440.5C 489.507,443.675 488.34,446.341 486.5,448.5C 487.782,441.772 489.782,435.272 492.5,429C 494.276,425.557 496.61,422.723 499.5,420.5 Z"></path></g>
<g><path style="opacity:0.1" fill="#2f2f2f" d="M 552.5,443.5 C 558.132,452.101 562.132,461.434 564.5,471.5C 560.243,463.689 556.076,455.689 552,447.5C 551.235,445.934 551.402,444.601 552.5,443.5 Z"></path></g>
<g><path style="opacity:0.018" fill="#434343" d="M 386.5,447.5 C 386.313,449.564 385.813,451.564 385,453.5C 380.043,462.949 375.21,472.282 370.5,481.5C 370.002,478.319 370.835,475.653 373,473.5C 374.646,468.102 376.48,462.769 378.5,457.5C 381.601,454.412 384.267,451.078 386.5,447.5 Z"></path></g>
<g><path style="opacity:0.016" fill="#404040" d="M 462.5,508.5 C 465.654,500.214 468.654,491.881 471.5,483.5C 472.222,483.082 472.722,482.416 473,481.5C 471.569,491.29 468.069,500.29 462.5,508.5 Z"></path></g>
<g><path style="opacity:0.102" fill="#4d4d4d" d="M 370.5,481.5 C 370.218,485.68 368.885,489.347 366.5,492.5C 365.861,491.903 365.528,491.07 365.5,490C 366.63,487.593 367.463,485.093 368,482.5C 368.671,481.748 369.504,481.414 370.5,481.5 Z"></path></g>
<g><path style="opacity:0.761" fill="#1c1c1c" d="M 493.5,436.5 C 492.82,440.119 492.32,443.786 492,447.5C 487.673,455.136 484.34,463.136 482,471.5C 476.084,476.933 473.251,483.766 473.5,492C 472.24,493.806 471.073,495.639 470,497.5C 468.349,505.468 465.349,512.801 461,519.5C 459.549,524.182 457.882,528.849 456,533.5C 453.478,548.316 450.478,562.983 447,577.5C 446.059,579.727 444.892,581.727 443.5,583.5C 443.5,581.167 443.5,578.833 443.5,576.5C 443.577,572.123 444.077,567.79 445,563.5C 445.383,562.944 445.883,562.611 446.5,562.5C 451.416,552.982 454.083,542.649 454.5,531.5C 455.799,523.277 458.466,515.61 462.5,508.5C 468.069,500.29 471.569,491.29 473,481.5C 472.722,482.416 472.222,483.082 471.5,483.5C 476.818,471.875 481.818,460.208 486.5,448.5C 488.34,446.341 489.507,443.675 490,440.5C 490.949,438.907 492.115,437.574 493.5,436.5 Z"></path></g>
<g><path style="opacity:0.027" fill="#494949" d="M 365.5,493.5 C 365.821,496.577 364.821,498.91 362.5,500.5C 361.908,497.369 362.908,495.036 365.5,493.5 Z"></path></g>
<g><path style="opacity:0.51" fill="#323232" d="M 565.5,472.5 C 566.232,473.808 567.066,475.142 568,476.5C 570.48,484.726 572.647,493.059 574.5,501.5C 572.7,502.605 571.533,501.939 571,499.5C 569.443,491.039 567.276,482.705 564.5,474.5C 564.543,473.584 564.876,472.917 565.5,472.5 Z"></path></g>
<g><path style="opacity:0.792" fill="#212121" d="M 183.5,451.5 C 183.489,453.547 183.156,455.547 182.5,457.5C 177.493,466.51 173.326,475.843 170,485.5C 169.667,488.833 169.333,492.167 169,495.5C 164.317,505.217 161.817,515.551 161.5,526.5C 160.5,526.5 159.5,526.5 158.5,526.5C 158.877,531.453 158.211,536.119 156.5,540.5C 157.532,535.341 157.532,530.341 156.5,525.5C 157.11,524.609 157.443,523.609 157.5,522.5C 158.75,522.423 159.583,521.756 160,520.5C 161.785,515.314 162.618,509.98 162.5,504.5C 165.409,489.606 170.243,475.273 177,461.5C 178.46,457.547 180.626,454.214 183.5,451.5 Z"></path></g>
<g><path style="opacity:0.29" fill="#474747" d="M 162.5,504.5 C 162.618,509.98 161.785,515.314 160,520.5C 159.583,521.756 158.75,522.423 157.5,522.5C 158.983,516.992 160.15,511.326 161,505.5C 161.383,504.944 161.883,504.611 162.5,504.5 Z"></path></g>
<g><path style="opacity:0.272" fill="#3c3c3c" d="M 574.5,502.5 C 575.117,502.611 575.617,502.944 576,503.5C 578.674,513.709 580.841,524.043 582.5,534.5C 581.504,534.586 580.671,534.252 580,533.5C 578.759,526.047 577.092,518.713 575,511.5C 574.502,508.518 574.335,505.518 574.5,502.5 Z"></path></g>
<g><path style="opacity:0.212" fill="#3d3d3d" d="M 362.5,500.5 C 362.477,502.927 361.977,505.26 361,507.5C 358.161,511.999 355.995,516.832 354.5,522C 353.923,524.137 353.59,526.304 353.5,528.5C 352.252,527.666 351.585,526.333 351.5,524.5C 353.026,515.452 356.693,507.452 362.5,500.5 Z"></path></g>
<g><path style="opacity:0.118" fill="#3f3f3f" d="M 454.5,531.5 C 454.083,542.649 451.416,552.982 446.5,562.5C 446.485,558.44 446.985,554.44 448,550.5C 450.535,544.872 452.202,538.872 453,532.5C 453.383,531.944 453.883,531.611 454.5,531.5 Z"></path></g>
<g><path style="opacity:0.349" fill="#3a3a3a" d="M 156.5,525.5 C 157.532,530.341 157.532,535.341 156.5,540.5C 156.207,549.238 154.54,557.571 151.5,565.5C 151.472,551.726 153.138,538.393 156.5,525.5 Z"></path></g>
<g><path style="opacity:0.435" fill="#252525" d="M 351.5,531.5 C 349.451,541.158 347.284,550.824 345,560.5C 344.617,561.056 344.117,561.389 343.5,561.5C 342.854,556.154 343.688,551.154 346,546.5C 346.368,541.696 347.368,537.03 349,532.5C 349.671,531.748 350.504,531.414 351.5,531.5 Z"></path></g>
<g><path style="opacity:0.35" fill="#1f1f1f" d="M 583.5,545.5 C 584.445,550.405 584.779,555.405 584.5,560.5C 583.076,569.794 582.409,579.294 582.5,589C 582.501,594.677 582.834,600.177 583.5,605.5C 582.555,610.405 582.221,615.405 582.5,620.5C 581.883,620.611 581.383,620.944 581,621.5C 580.818,595.983 581.652,570.649 583.5,545.5 Z"></path></g>
<g><path style="opacity:0.084" fill="#535353" d="M 584.5,560.5 C 584.801,575.548 584.468,590.548 583.5,605.5C 582.834,600.177 582.501,594.677 582.5,589C 582.409,579.294 583.076,569.794 584.5,560.5 Z"></path></g>
<g><path style="opacity:0.067" fill="#4b4b4b" d="M 150.5,567.5 C 151.833,577.5 151.833,587.5 150.5,597.5C 149.167,587.5 149.167,577.5 150.5,567.5 Z"></path></g>
<g><path style="opacity:0.18" fill="#424242" d="M 443.5,576.5 C 443.5,578.833 443.5,581.167 443.5,583.5C 443.5,584.167 443.5,584.833 443.5,585.5C 442.017,591.081 440.35,596.747 438.5,602.5C 438.158,593.117 439.824,584.45 443.5,576.5 Z"></path></g>
<g><path style="opacity:0.063" fill="#535353" d="M 156.5,631.5 C 155.161,625.448 153.827,619.448 152.5,613.5C 153.15,613.196 153.817,612.863 154.5,612.5C 157.06,618.8 157.727,625.133 156.5,631.5 Z"></path></g>
<g><path style="opacity:0.7" fill="#181818" d="M 443.5,585.5 C 440.733,604.263 438.399,623.096 436.5,642C 434.782,650.103 432.782,657.937 430.5,665.5C 432.597,649.812 435.097,634.145 438,618.5C 438.499,613.177 438.666,607.844 438.5,602.5C 440.35,596.747 442.017,591.081 443.5,585.5 Z"></path></g>
<g><path style="opacity:0.141" fill="#474747" d="M 157.5,632.5 C 158.5,632.5 159.5,632.5 160.5,632.5C 161.487,637.117 162.154,641.784 162.5,646.5C 161.351,646.209 160.684,645.376 160.5,644C 159.715,640.023 158.715,636.189 157.5,632.5 Z"></path></g>
<g><path style="opacity:0.047" fill="#4d4d4d" d="M 327.5,625.5 C 322.848,645.417 320.848,665.751 321.5,686.5C 320.038,678.377 319.371,670.044 319.5,661.5C 321.159,649.514 322.826,637.514 324.5,625.5C 325.5,625.5 326.5,625.5 327.5,625.5 Z"></path></g>
<g><path style="opacity:0.076" fill="#2a2a2a" d="M 580.5,623.5 C 580.367,632.366 579.367,641.033 577.5,649.5C 576.053,648.866 575.387,647.699 575.5,646C 577.276,639.302 578.443,632.469 579,625.5C 579.278,624.584 579.778,623.918 580.5,623.5 Z"></path></g>
<g><path style="opacity:0.051" fill="#575757" d="M 438.5,602.5 C 438.666,607.844 438.499,613.177 438,618.5C 435.097,634.145 432.597,649.812 430.5,665.5C 427.945,675.623 426.779,685.957 427,696.5C 425.79,701.483 423.457,705.816 420,709.5C 419.601,709.272 419.435,708.938 419.5,708.5C 421.947,703.38 423.78,698.047 425,692.5C 425.333,686.5 425.667,680.5 426,674.5C 431.149,650.371 435.315,626.371 438.5,602.5 Z"></path></g>
<g><path style="opacity:0.186" fill="#363636" d="M 162.5,647.5 C 165.455,648.96 167.622,651.293 169,654.5C 170.697,661.586 173.197,668.419 176.5,675C 176.43,675.765 176.097,676.265 175.5,676.5C 171.077,669.009 167.077,661.175 163.5,653C 162.767,651.234 162.433,649.401 162.5,647.5 Z"></path></g>
<g><path style="opacity:0.824" fill="#171717" d="M 343.5,563.5 C 337.755,584.067 332.422,604.733 327.5,625.5C 326.5,625.5 325.5,625.5 324.5,625.5C 322.826,637.514 321.159,649.514 319.5,661.5C 318.436,676.67 317.936,692.003 318,707.5C 318.708,708.381 319.542,709.047 320.5,709.5C 320.5,710.167 320.5,710.833 320.5,711.5C 318.887,711.056 317.72,710.056 317,708.5C 315.886,686.716 316.553,665.05 319,643.5C 324.926,625.35 330.259,607.017 335,588.5C 335.333,585.5 335.667,582.5 336,579.5C 338.308,575.489 339.808,571.156 340.5,566.5C 341.141,565.007 342.141,564.007 343.5,563.5 Z"></path></g>
<g><path style="opacity:0.282" fill="#2b2b2b" d="M 319.5,661.5 C 319.371,670.044 320.038,678.377 321.5,686.5C 321.5,690.833 321.5,695.167 321.5,699.5C 320.686,697.369 320.186,695.036 320,692.5C 319.26,698.218 319.427,703.885 320.5,709.5C 319.542,709.047 318.708,708.381 318,707.5C 317.936,692.003 318.436,676.67 319.5,661.5 Z"></path></g>
<g><path style="opacity:0.176" fill="#363636" d="M 196.5,699.5 C 193.737,699.256 191.571,697.923 190,695.5C 185.286,689.958 180.786,684.292 176.5,678.5C 177.117,678.389 177.617,678.056 178,677.5C 184.784,684.439 190.951,691.773 196.5,699.5 Z"></path></g>
<g><path style="opacity:0.122" fill="#3b3b3b" d="M 576.5,652.5 C 573.31,666.222 568.81,679.555 563,692.5C 559.371,698.692 555.537,704.692 551.5,710.5C 550.957,710.44 550.624,710.107 550.5,709.5C 551.098,708.205 551.598,706.872 552,705.5C 557.575,698.79 561.242,691.123 563,682.5C 568.636,673.314 572.136,663.314 573.5,652.5C 574.5,652.5 575.5,652.5 576.5,652.5 Z"></path></g>
<g><path style="opacity:0.122" fill="#505050" d="M 199.5,702.5 C 200.675,702.281 201.675,702.614 202.5,703.5C 203.826,704.642 204.826,705.976 205.5,707.5C 203.567,707.271 201.9,706.438 200.5,705C 199.748,704.329 199.414,703.496 199.5,702.5 Z"></path></g>
<g><path style="opacity:0.038" fill="#515151" d="M 321.5,699.5 C 321.151,703.064 321.817,706.398 323.5,709.5C 327.567,713.187 331.9,716.521 336.5,719.5C 336.265,720.097 335.765,720.43 335,720.5C 333.5,720 332,719.5 330.5,719C 327.316,716.248 323.982,713.748 320.5,711.5C 320.5,710.833 320.5,710.167 320.5,709.5C 319.427,703.885 319.26,698.218 320,692.5C 320.186,695.036 320.686,697.369 321.5,699.5 Z"></path></g>
<g><path style="opacity:0.216" fill="#5c5c5c" d="M 417.5,710.5 C 418.239,710.369 418.906,710.536 419.5,711C 416.666,716.349 412.333,719.515 406.5,720.5C 410.147,717.189 413.813,713.855 417.5,710.5 Z"></path></g>
<g><path style="opacity:0.859" fill="#3a3a3a" d="M 205.5,707.5 C 211.803,709.984 217.469,713.484 222.5,718C 225.633,718.393 228.633,719.226 231.5,720.5C 235.261,723.063 238.928,725.896 242.5,729C 250.652,730.529 257.652,734.029 263.5,739.5C 261.801,739.66 260.134,739.494 258.5,739C 249.338,734.507 240.171,730.007 231,725.5C 225.3,721.755 219.467,718.255 213.5,715C 210.321,712.985 207.654,710.485 205.5,707.5 Z"></path></g>
<g><path style="opacity:0.122" fill="#474747" d="M 406.5,720.5 C 406.489,722.017 405.823,723.184 404.5,724C 402.026,724.113 400.026,725.113 398.5,727C 394.295,728.68 389.962,729.847 385.5,730.5C 388.479,729.192 391.146,727.525 393.5,725.5C 397.663,723.377 401.996,721.71 406.5,720.5 Z"></path></g>
<g><path style="opacity:0.016" fill="#909090" d="M 346.5,725.5 C 349.636,725.603 352.302,726.603 354.5,728.5C 351.083,728.977 348.416,727.977 346.5,725.5 Z"></path></g>
<g><path style="opacity:0.443" fill="#4b4b4b" d="M 337.5,720.5 C 340.409,722.356 343.409,724.023 346.5,725.5C 348.416,727.977 351.083,728.977 354.5,728.5C 355.5,728.5 356.5,728.5 357.5,728.5C 357.167,729.167 356.833,729.833 356.5,730.5C 348.302,730.569 341.968,727.236 337.5,720.5 Z"></path></g>
<g><path style="opacity:0.051" fill="#8c8c8c" d="M 393.5,725.5 C 391.146,727.525 388.479,729.192 385.5,730.5C 385.167,730.5 384.833,730.5 384.5,730.5C 375.837,731.789 367.17,731.789 358.5,730.5C 357.833,730.5 357.167,730.5 356.5,730.5C 356.833,729.833 357.167,729.167 357.5,728.5C 369.712,729.238 381.712,728.238 393.5,725.5 Z"></path></g>
<g><path style="opacity:0.461" fill="#3f3f3f" d="M 358.5,730.5 C 367.17,731.789 375.837,731.789 384.5,730.5C 384.082,731.222 383.416,731.722 382.5,732C 378.5,732.167 374.5,732.333 370.5,732.5C 366.107,732.491 362.107,731.824 358.5,730.5 Z"></path></g>
<g><path style="opacity:0.759" fill="#2e2e2e" d="M 529.5,732.5 C 520.835,739.333 511.168,744.333 500.5,747.5C 505.015,743.405 510.349,740.405 516.5,738.5C 519.623,733.367 523.956,731.367 529.5,732.5 Z"></path></g>
<g><path style="opacity:0.161" fill="#484848" d="M 263.5,739.5 C 272.114,741.114 280.447,743.614 288.5,747C 291.5,747.333 294.5,747.667 297.5,748C 298.571,748.852 299.571,749.685 300.5,750.5C 287.266,749.118 274.932,745.451 263.5,739.5 Z"></path></g>
<g><path style="opacity:0.267" fill="#373737" d="M 498.5,748.5 C 491.835,751.589 484.835,753.923 477.5,755.5C 477.369,754.624 477.702,753.957 478.5,753.5C 484.38,751.195 490.38,749.195 496.5,747.5C 497.416,747.543 498.083,747.876 498.5,748.5 Z"></path></g>
<g><path style="opacity:0.161" fill="#3e3e3e" d="M 336.5,755.5 C 339.246,756.251 341.913,757.251 344.5,758.5C 329.677,757.898 315.344,755.564 301.5,751.5C 302.622,750.844 303.955,750.511 305.5,750.5C 310.159,751.066 314.826,751.566 319.5,752C 324.748,754.867 330.414,756.034 336.5,755.5 Z"></path></g>
<g><path style="opacity:0.745" fill="#181818" d="M 336.5,755.5 C 357.196,756.088 377.863,757.254 398.5,759C 411.342,759.451 424.009,759.617 436.5,759.5C 449,756.881 461.667,755.548 474.5,755.5C 473.666,756.748 472.333,757.415 470.5,757.5C 460.969,759.54 451.302,760.874 441.5,761.5C 423.341,760.503 405.008,760.17 386.5,760.5C 373.943,758.893 361.277,758.226 348.5,758.5C 347.167,758.5 345.833,758.5 344.5,758.5C 341.913,757.251 339.246,756.251 336.5,755.5 Z"></path></g>
<g><path style="opacity:0.027" fill="#636363" d="M 348.5,758.5 C 361.277,758.226 373.943,758.893 386.5,760.5C 387.5,761.167 388.5,761.833 389.5,762.5C 383.158,762.666 376.825,762.5 370.5,762C 362.863,761.244 355.53,760.077 348.5,758.5 Z"></path></g>
<g><path style="opacity:0.029" fill="#343434" d="M 386.5,760.5 C 405.008,760.17 423.341,760.503 441.5,761.5C 424.244,762.485 406.91,762.819 389.5,762.5C 388.5,761.833 387.5,761.167 386.5,760.5 Z"></path></g>
</svg><style>@media (prefers-color-scheme: light) { :root { filter: none; } }
@media (prefers-color-scheme: dark) { :root { filter: invert(100%); } }
</style></svg>